<?xml version="1.0" encoding="utf-8"?>
<!-- Generator: Adobe Illustrator 23.1.1, SVG Export Plug-In . SVG Version: 6.00 Build 0)  -->
<svg version="1.1" id="Calque_1" xmlns="http://www.w3.org/2000/svg" xmlns:xlink="http://www.w3.org/1999/xlink" x="0px" y="0px"
	 viewBox="0 0 1920 1080" style="enable-background:new 0 0 1920 1080;" xml:space="preserve">
<style type="text/css">
	.st0{fill:url(#SVGID_1_);}
	.st1{fill:url(#SVGID_2_);}
	.st2{fill:url(#SVGID_3_);}
	.st3{fill:url(#SVGID_4_);}
	.st4{fill:url(#SVGID_5_);}
	.st5{fill:url(#SVGID_6_);}
	.st6{fill:url(#SVGID_7_);}
	.st7{fill:url(#SVGID_8_);}
	.st8{fill:url(#SVGID_9_);}
	.st9{fill:url(#SVGID_10_);}
	.st10{fill:url(#SVGID_11_);}
	.st11{display:none;}
	.st12{display:inline;}
	.st13{fill:url(#SVGID_12_);}
</style>
<g>
	<radialGradient id="SVGID_1_" cx="756.661" cy="216.7993" r="1.3942" gradientUnits="userSpaceOnUse">
		<stop  offset="0" style="stop-color:#FEF150"/>
		<stop  offset="0.2375" style="stop-color:#FEED50"/>
		<stop  offset="0.4751" style="stop-color:#FEE150"/>
		<stop  offset="0.7128" style="stop-color:#FFCD50"/>
		<stop  offset="0.9494" style="stop-color:#FFB150"/>
		<stop  offset="1" style="stop-color:#FFAA50"/>
	</radialGradient>
	<path class="st0" d="M756,214.9c0,0,0.5,0.9,1.3,3.7C757.4,216.3,757,215,756,214.9z"/>
	<radialGradient id="SVGID_2_" cx="810.9819" cy="322.1109" r="299.1072" gradientUnits="userSpaceOnUse">
		<stop  offset="0" style="stop-color:#FEF150"/>
		<stop  offset="0.2375" style="stop-color:#FEED50"/>
		<stop  offset="0.4751" style="stop-color:#FEE150"/>
		<stop  offset="0.7128" style="stop-color:#FFCD50"/>
		<stop  offset="0.9494" style="stop-color:#FFB150"/>
		<stop  offset="1" style="stop-color:#FFAA50"/>
	</radialGradient>
	<path class="st1" d="M1016.4,310.3c-57.7-48.4-26.1-135.6-26.1-135.6C935.7,298.2,960,339.6,960,339.6s94.5,103.9-25.1,153.8
		c-16.5,6.9-12.1-1.6-12.1-1.6s23.4-55.7,20.8-79.9c-2.6-24.2,8.4,57.9-19.7-5s-21.5-122-13.7-188c7.2-61.1-48.7-187.5-58.9-194.2
		l0,0c16.2,24.4,8.1,126.4-31.9,179.1c-16.9,22.3-29.1-20.2-13.5,100.8c15.6,121-46.7,113.8-44.1,19.4c2-70.9-2.3-96.8-4.5-105.3
		c-0.9,13.5-19.6,61.1-44.8,100.7c-30.1,47.2-8.8,95.1-10.4,114.4c-2.6,31.5-51.9,62.9-51.9,62.9s24.2-52.5,31.2-62.9
		c30.8-46.1,13.2-34.4-9.4-81.7c-19.6-41-39.9-58.7-19.1-111.9c20.8-53.3,10.4-67.8,10.4-67.8c-2.6,38.7-44.1,53.3-59.7,94.4
		c-15.6,41.2-13,62.9,7.8,129.5c20.8,66.5-1.1,80.5-1.1,80.5s-22-21.8-47.5-40c-42.2-30.2-16.4-104.5-16.4-104.5
		c-66.3,137.2-21,287.4-21,287.4l0,0l326-90.4l222.8-3.4C1163.1,351.4,1074.1,358.7,1016.4,310.3z"/>
</g>
<g>
	<radialGradient id="SVGID_3_" cx="985.8246" cy="78.7364" r="0.5755" gradientUnits="userSpaceOnUse">
		<stop  offset="0" style="stop-color:#FEF150"/>
		<stop  offset="0.2375" style="stop-color:#FEED50"/>
		<stop  offset="0.4751" style="stop-color:#FEE150"/>
		<stop  offset="0.7128" style="stop-color:#FFCD50"/>
		<stop  offset="0.9494" style="stop-color:#FFB150"/>
		<stop  offset="1" style="stop-color:#FFAA50"/>
	</radialGradient>
	<path class="st2" d="M985.9,77.9c-0.1,0.5-0.2,1-0.2,1.6c0.1-0.5,0.3-1.1,0.4-1.6H985.9z"/>
	<radialGradient id="SVGID_4_" cx="910.1657" cy="494.1826" r="11.1542" gradientUnits="userSpaceOnUse">
		<stop  offset="0" style="stop-color:#FEF150"/>
		<stop  offset="0.2375" style="stop-color:#FEED50"/>
		<stop  offset="0.4751" style="stop-color:#FEE150"/>
		<stop  offset="0.7128" style="stop-color:#FFCD50"/>
		<stop  offset="0.9494" style="stop-color:#FFB150"/>
		<stop  offset="1" style="stop-color:#FFAA50"/>
	</radialGradient>
	<path class="st3" d="M903,507.5c0,0,8.4-4.9,15.7-17.8l-17-8.8C903,495.7,903,507.5,903,507.5z"/>
	<radialGradient id="SVGID_5_" cx="876.4752" cy="406.4224" r="55.5866" gradientUnits="userSpaceOnUse">
		<stop  offset="0" style="stop-color:#FEF150"/>
		<stop  offset="0.2375" style="stop-color:#FEED50"/>
		<stop  offset="0.4751" style="stop-color:#FEE150"/>
		<stop  offset="0.7128" style="stop-color:#FFCD50"/>
		<stop  offset="0.9494" style="stop-color:#FFB150"/>
		<stop  offset="1" style="stop-color:#FFAA50"/>
	</radialGradient>
	<path class="st4" d="M882,422.6c-20.9-8.5-16.3-90.6-16.3-90.6c-32.6,79.3,0,130.2,0,130.2l35.9,18.7
		C899.7,457.9,894.7,427.7,882,422.6z"/>
	<radialGradient id="SVGID_6_" cx="1140.1261" cy="373.122" r="264.6786" gradientUnits="userSpaceOnUse">
		<stop  offset="0" style="stop-color:#FEF150"/>
		<stop  offset="0.2375" style="stop-color:#FEED50"/>
		<stop  offset="0.4751" style="stop-color:#FEE150"/>
		<stop  offset="0.7128" style="stop-color:#FFCD50"/>
		<stop  offset="0.9494" style="stop-color:#FFB150"/>
		<stop  offset="1" style="stop-color:#FFAA50"/>
	</radialGradient>
	<path class="st5" d="M1286.8,306.5c-51.7-56.6-23.4-158.5-23.4-158.5c-48.8,144.4-44.9,163.2-30.7,204.9
		c14.3,41.7,19.5,67.8-2.9,128c-49.4,133.2-26.9,37.9-26.9,37.9s-7.8-37.8-10.2-66.1c-2.3-28.3,7.8-67-17.3-140.6
		s-38.1-27.6-31.1-104.8c7-77.2,15.2-101.4,15.2-101.4l-49.3,76c-15.2,26.1-26,36.8-12.1,178.4s-41.9,133.1-39.5,22.6
		c1.8-83.2-24.2-140.7-37.2-164c6.8,19,12.2,58.7-7,98.1c-26.9,55.2-7.9,111.3-9.3,133.8c-2.3,36.8-46.5,73.6-46.5,73.6
		s21.6-61.3,27.9-73.6c27.5-53.9-6.1-74.6-18.6-133.8c-11.5-54.6,4.5,7,4-92.7c-0.3-48.2,8.7-113.4,13.5-144.9
		c-12.1,50.3-56.5,133.7-68.7,176c-14,48.1-11.6,73.6,7,151.4c10,41.8,3.2,67.8-5.2,82.8l4.1,2.1l177.9,174.9l237.9-108.3
		C1418.3,354.6,1338.5,363.1,1286.8,306.5z"/>
</g>
<g>
	<radialGradient id="SVGID_7_" cx="886.2816" cy="311.0276" r="3.6478" gradientUnits="userSpaceOnUse">
		<stop  offset="0" style="stop-color:#FEF150"/>
		<stop  offset="0.2375" style="stop-color:#FEED50"/>
		<stop  offset="0.4751" style="stop-color:#FEE150"/>
		<stop  offset="0.7128" style="stop-color:#FFCD50"/>
		<stop  offset="0.9494" style="stop-color:#FFB150"/>
		<stop  offset="1" style="stop-color:#FFAA50"/>
	</radialGradient>
	<path class="st6" d="M888.1,315.9c-1.5-3.8-2.7-7-3.7-9.6C885.3,309.9,886.6,313.1,888.1,315.9z"/>
	<radialGradient id="SVGID_8_" cx="721.2704" cy="424.7095" r="242.9669" gradientUnits="userSpaceOnUse">
		<stop  offset="0" style="stop-color:#FEF150"/>
		<stop  offset="0.2375" style="stop-color:#FEED50"/>
		<stop  offset="0.4751" style="stop-color:#FEE150"/>
		<stop  offset="0.7128" style="stop-color:#FFCD50"/>
		<stop  offset="0.9494" style="stop-color:#FFB150"/>
		<stop  offset="1" style="stop-color:#FFAA50"/>
	</radialGradient>
	<path class="st7" d="M957.9,441.8c5.8-23.9-20.3-51.7-30.5-78c-11.2-28.9-30.3-31.7-39.3-48c1.4,3.5,3,7.6,4.8,12.3
		c19.2,48,4.8,25.6-7.2,71.5c-12,45.9-47.7,61.6-19.2,103.2c6.5,9.5-4.4,9.4-4.4,9.4s-12.5,19-14.9-9.4
		c-1.5-17.4,18.2-60.6-9.6-103.2c-19.8-30.4-14.2-61-7.3-75.7c-13.3,17.9-40.2,62.3-38.4,126.5c2.4,85.2-55.2,91.7-40.8-17.5
		s3.2-117.5-12.5-137.6c-37.2-47.8-15.7-93.4-0.7-115.3h0c-7.7,4.8-72.8,47.7-66.1,103.8c7.2,59.5,25.4,55.2-0.5,112
		s-45.1,65.5-47.5,87.3c-2.4,21.8,19.2,72.1,19.2,72.1s-48.8,77.9-60-39.3c-4.2-43.7,11.9-85.5,11.9-85.5s8.9-39.2-41.5-150.6
		c0,0,31.5,84.7-21.9,128.4s-69.7,74.1-28.4,177.6l245.6,83.5l62.9-111.1l135.9-39.8C947.6,518.4,972.7,489.1,957.9,441.8z"/>
	<radialGradient id="SVGID_9_" cx="882.6675" cy="300.3731" r="4.3119" gradientUnits="userSpaceOnUse">
		<stop  offset="0" style="stop-color:#FEF150"/>
		<stop  offset="0.2375" style="stop-color:#FEED50"/>
		<stop  offset="0.4751" style="stop-color:#FEE150"/>
		<stop  offset="0.7128" style="stop-color:#FFCD50"/>
		<stop  offset="0.9494" style="stop-color:#FFB150"/>
		<stop  offset="1" style="stop-color:#FFAA50"/>
	</radialGradient>
	<path class="st8" d="M884.5,306.2c-0.6-2.6-1-5.4-1.2-8.5C883.2,297.7,877.2,286.6,884.5,306.2z"/>
</g>
<g>
	<radialGradient id="SVGID_10_" cx="1205.3931" cy="179.336" r="0.7416" gradientUnits="userSpaceOnUse">
		<stop  offset="0" style="stop-color:#FEF150"/>
		<stop  offset="0.2375" style="stop-color:#FEED50"/>
		<stop  offset="0.4751" style="stop-color:#FEE150"/>
		<stop  offset="0.7128" style="stop-color:#FFCD50"/>
		<stop  offset="0.9494" style="stop-color:#FFB150"/>
		<stop  offset="1" style="stop-color:#FFAA50"/>
	</radialGradient>
	<path class="st9" d="M1206.1,178.6h-0.5c-0.3,0.5-0.7,1-1,1.5c0.5-0.3,0.7-0.4,0.7-0.4L1206.1,178.6z"/>
	<radialGradient id="SVGID_11_" cx="1206.8177" cy="424.7013" r="252.4947" gradientUnits="userSpaceOnUse">
		<stop  offset="0" style="stop-color:#FEF150"/>
		<stop  offset="0.2375" style="stop-color:#FEED50"/>
		<stop  offset="0.4751" style="stop-color:#FEE150"/>
		<stop  offset="0.7128" style="stop-color:#FFCD50"/>
		<stop  offset="0.9494" style="stop-color:#FFB150"/>
		<stop  offset="1" style="stop-color:#FFAA50"/>
	</radialGradient>
	<path class="st10" d="M1443.1,557.2c0,0,57.9-115.9-6.8-193.4c0,0,0,107.9-38.4,105.1c-13.1-0.9,21.6-79.7,7.2-116.8
		c-14.4-37.1-52.8-50.2-55.2-85.2c0,0-5.1,11.5,9.6,61.1c9.7,32.6,21.4,45-5.5,86.8c-25.7,39.8-45.6,80.8-17.2,122.4
		c6.5,9.5-1.8,35.9-1.8,35.9s-18.8-42-21.2-70.4c-1.5-17.4,18.2-60.6-9.6-103.2c-27.4-42-30.5-79.5-24.2-79.6c0,0-35.4-10.6-33,74.6
		s-65.2,93-40.2,43.1c16-32,23.4-92.3-1.5-142.3c-27-54.2-15.7-93.4-0.7-115.3c-7.5,4.7-72.9,47.7-66.1,103.8
		c7.2,59.5,25.4,55.2-0.5,112c-25.9,56.8-45.1,65.5-47.5,87.3c-2.4,21.8,19.2,72.1,19.2,72.1s46.1,83-18.8-15.2
		c-64.8-98.3-29.1-135.6-29.1-135.6s58.8-37.9,8.3-149.2c0,0,6.4,92.7-47,136.3C969.8,435.1,903,421.8,985.4,579l230.1,90.3
		l200.1-27.6L1443.1,557.2z"/>
</g>
<g class="st11">
	<g id="XixgHn_1_" class="st12">
	</g>
</g>
<linearGradient id="SVGID_12_" gradientUnits="userSpaceOnUse" x1="991.6889" y1="1093.1873" x2="971.0021" y2="91.3572">
	<stop  offset="0" style="stop-color:#E81616"/>
	<stop  offset="0.4733" style="stop-color:#B12750"/>
	<stop  offset="0.7459" style="stop-color:#312866"/>
</linearGradient>
<path class="st13" d="M1665.3,736.8c0,0-11.7-16.8-32.5-36.1s-48.2-25.3-48.2-25.3c7.2,1.2-30.1-15.7-29.9-16.3
	c0.2-0.5-71-51.9-71.3-52.3l-70.9-87.2l-35.1-1.3L1357,555l-39.4-34.5l-37.7-124.9l-17.1,22.7l0,0l-19.3,121.7l-61.6-52.5
	l-65.2-114.1l0,0l-35.2-7.4l0,0l-45.8,89.4L966,394.6l-19.3-72.9l-16.4-28.7l-20.2-8.8l-25.7-53.2l-34.2,76.4l-32,99.7l-35.8,51.7
	L782,459l0.1-0.7l-28.7-77.2l-20.8-59.7l-28.6,38.9l-20.8,70.1l-58.8,84l-19.8,24.2l-11.4-35.3l-18.3-10l0,0
	c-8.4,33.7-23,88.1-31,93.7c-8.9,6.1-23.9-64.5-30.6-99l-12.7,12.3l-47,156.6l-101.1,52.4c0,0,0.8,0.7-19.1,21.7
	c-4.2,4.4,25.2,14.6,90.8,21.1l-84.4,43.7c0,0,1.5,1.3-33.8,38.3c-8.7,9.1,64,32.2,225.5,42.5c72.6,4.7,163,36.9,243.3,40.2
	c100.7,4.1,201,6.6,284.3,6.6c53.9,0,69.7-12.1,65.1-29.5c-5.7-11-13.9-22.7-25.7-34.9c-11.8-11.2-26.4-22.8-41.3-33.9
	c-12.9-8.6-27.8-17.3-45-25.9C895.4,741.2,828.6,711.4,797.2,692c-42.3-26.2-20.1-33.6,31.1-66.6c105.4-68,145.8-72.2,101.1-87.1
	c-14.6-4.9-23.4-6.4-23.4-6.4s75.5,10.1,50.7,32.3c-35.9,32.3-89,71.9-89,71.9s-19.2,19.3,10.6,29.8c50.6,17.8,82.7,26.8,138.8,43.9
	c31.2,9.5,69.7,21.6,122.9,39.1c76.9,25.3,134.8,45.7,189.5,70.6c14.2,0.2,27.9,0.3,40.9,0.3c16.3,0,26.4-2,32-5.3
	c63.7-6.2,124.5-18.8,178-38c0,0-5-7.2-14.4-18.5C1601.4,754.7,1635.4,747.6,1665.3,736.8z"/>
</svg>
