<?xml version="1.0" encoding="utf-8"?>
<!-- Generator: Adobe Illustrator 23.1.1, SVG Export Plug-In . SVG Version: 6.00 Build 0)  -->
<svg version="1.1" id="Layer_3" xmlns="http://www.w3.org/2000/svg" xmlns:xlink="http://www.w3.org/1999/xlink" x="0px" y="0px"
	 viewBox="0 0 155.2 41.6" style="enable-background:new 0 0 155.2 41.6;" xml:space="preserve">
<style type="text/css">
	.st0{fill:#261F50;}
	.st1{fill:#FFFFFF;}
</style>
<title>logo</title>
<g>
	<g>
		<path class="st0" d="M116.8,35.6L116.8,35.6c-1.6,0-3.1-0.6-4.2-1.7c-1.2-1.1-1.8-2.7-1.8-4.3c0-1.5,0.6-3,1.7-4.2
			s2.7-1.8,4.3-1.8c1.6,0,3.1,0.6,4.2,1.8c1.1,1.1,1.7,2.6,1.7,4.2c0,1.6-0.6,3.1-1.7,4.2C119.8,35,118.4,35.6,116.8,35.6
			L116.8,35.6z M116.8,28.5c-0.3,0-0.7,0.1-0.9,0.4c-0.2,0.2-0.3,0.5-0.3,0.8s0.2,0.7,0.3,0.8c0.2,0.2,0.5,0.4,0.9,0.4L116.8,28.5z
			 M116.8,28.5l0,2.4c0.3,0,0.6-0.2,0.8-0.4c0.1-0.1,0.3-0.5,0.3-0.8c0-0.3-0.1-0.7-0.4-0.9C117.5,28.6,117.1,28.5,116.8,28.5z"/>
	</g>
</g>
<polygon class="st1" points="52.5,34.1 43.3,21.9 43.3,34 35.1,34 35.1,7.3 42.2,7.3 51,18.9 51,7.3 59,7.3 59,34.1 "/>
<g>
	<polygon class="st1" points="104.2,34.1 99.7,27.2 95.2,34.1 85.6,34.1 94.9,20.5 85.9,7.3 95.7,7.3 99.9,13.7 104.1,7.3 
		113.7,7.3 104.7,20.4 114,34.1 	"/>
	<path class="st0" d="M110.8,8.8l-7.9,11.6l8.3,12.1l-6.1,0l-5.3-8.1l-5.4,8.1l-5.9,0l8.3-12.1L88.8,8.8l6.1,0l5,7.7l5-7.7
		L110.8,8.8 M116.6,5.8l-5.7,0l-5.9,0l-1.6,0l-0.9,1.4L99.9,11l-2.4-3.8l-0.9-1.4l-1.6,0l-6.1,0l-5.7,0l3.2,4.7l6.8,9.9L86,30.8
		l-3.3,4.7l5.8,0l5.9,0l1.6,0l0.9-1.4l2.8-4.3l2.8,4.3l0.9,1.4l1.6,0l6.1,0l5.7,0l-3.2-4.7l-7.1-10.4l6.8-9.9L116.6,5.8L116.6,5.8z"
		/>
</g>
<g>
	<path class="st1" d="M132.5,34.5c-4.3,0-7.8-1.6-10.4-4.6l-0.9-1.1l5.8-5.5l1,1.2c1.5,1.7,2.8,2.3,4.6,2.3c0.6,0,1.8-0.1,1.8-1.4
		c0-0.5-0.1-0.8-0.5-1c-0.5-0.3-1.5-0.5-2.6-0.5l-3.4,0l-1.3-5.3l3.7-3.7l-7.2,0l0-7.5l19.1,0l0,6.1l-4.5,4.3
		c3.2,1.3,4.9,3.9,4.9,7.4c0,2.6-1,5-2.8,6.7C137.9,33.6,135.4,34.5,132.5,34.5L132.5,34.5z"/>
	<path class="st0" d="M124.6,8.8l16,0l0,3.9l-6,5.7c3.3,0.5,6.4,2.2,6.4,6.7c0,4.5-3.3,7.8-8.5,7.8c0,0,0,0,0,0
		c-4.3,0-7.2-1.7-9.3-4.1l3.6-3.4c1.6,1.8,3.3,2.8,5.7,2.8c0,0,0,0,0,0c2,0,3.4-1.1,3.4-2.9c0-2-1.7-3.1-4.6-3.1l-2.2,0l-0.8-3.3
		l5.7-5.7l-9.3,0L124.6,8.8 M121.6,5.8l0,3l0,4.5l0,3l3,0l2,0l-0.5,0.5l-1.2,1.2l0.4,1.7l0.6,2.4l-1.2,1.1l-3.6,3.4l-2.1,2l1.8,2.2
		c1.4,1.6,3,2.9,4.8,3.7c2,1,4.3,1.4,6.8,1.4h0c3.3,0,6.2-1,8.3-3c2.1-2,3.2-4.7,3.2-7.8c0-3.4-1.4-6-3.9-7.8l2.6-2.4l0.9-0.9l0-1.3
		l0-3.9l0-3l-3,0l-16,0L121.6,5.8L121.6,5.8z"/>
</g>
<g>
	<path class="st1" d="M27.3,34l-2.2-5.3l-8,0L15,34l-8.6,0L17.8,7.1l6.8,0L36.1,34L27.3,34z M22,21.1l-0.9-2.2l-0.9,2.2L22,21.1z"/>
	<path class="st0" d="M23.6,8.6l10.2,23.9l-5.5,0l-2.2-5.3l-10,0L14,32.5l-5.3,0L18.8,8.6L23.6,8.6 M18,22.6l6.3,0l-3.1-7.7L18,22.6
		 M25.6,5.6l-2,0l-4.8,0l-2,0L16,7.4L5.9,31.3l-2,4.2l4.8,0l5.3,0l2,0l0.8-1.9l1.4-3.4l6,0l1.4,3.4l0.8,1.9l2,0l5.5,0l4.6,0l-1-2.4
		l-1.9-0.6l0.2-3.5L26.4,7.4L25.6,5.6L25.6,5.6z"/>
</g>
<rect x="79" y="7.3" class="st1" width="8.3" height="26.8"/>
<g>
	<polygon class="st1" points="64.9,34.1 64.9,15.1 57.7,15.1 57.7,7.3 80.4,7.3 80.4,15.2 73.2,15.1 73.1,34.1 	"/>
	<path class="st0" d="M85.7,5.8l-5.2,0l-0.1,0l-0.9,0l-0.6,0l-1.4,0l-16.9,0l-1.3,0l-1.5,0l-0.2,0l-4.9,0l-3,0l0,3l0,5.6L43.9,7
		l-0.9-1.2l-1.5,0l-4.8,0l-3,0l0,3l0,23.7l0,3l3,0l5.2,0l3,0l0-3l0-6.1l6,7.9l0.9,1.2l1.5,0l4.2,0l3,0l0-3l0-15.9l2.9,0l0,15.9l0,3
		l3,0l5.2,0l3,0l0-3l0-15.9l2.8,0l0,15.9l0,3l3,0l5.2,0l3,0l0-1l-1-2l1-2.6l0-21.1l0-3L85.7,5.8z M57.5,32.5l-4.2,0L41.8,17.4
		l0,15.1l-5.2,0l0-23.7l4.8,0l11.1,14.6l0-14.6l4.9,0L57.5,32.5z M77.4,13.6l-5.8,0l0,18.9l-5.2,0l0-18.9l-5.7,0l0-4.8l16.7,0
		L77.4,13.6z M85.7,32.5l-5.2,0l0-23.7l5.2,0L85.7,32.5z"/>
</g>
<circle class="st1" cx="116.8" cy="29.7" r="2.4"/>
</svg>
