<?xml version="1.0" encoding="utf-8"?>
<!-- Generator: Adobe Illustrator 23.1.1, SVG Export Plug-In . SVG Version: 6.00 Build 0)  -->
<svg version="1.1" id="Calque_1" xmlns="http://www.w3.org/2000/svg" xmlns:xlink="http://www.w3.org/1999/xlink" x="0px" y="0px"
	 viewBox="0 0 1920 1080" style="enable-background:new 0 0 1920 1080;" xml:space="preserve">
<style type="text/css">
	.st0{fill:url(#SVGID_1_);}
	.st1{fill:url(#SVGID_2_);}
	.st2{fill:url(#SVGID_3_);}
	.st3{fill:url(#SVGID_4_);}
	.st4{fill:url(#SVGID_5_);}
	.st5{fill:url(#SVGID_6_);}
	.st6{fill:url(#SVGID_7_);}
	.st7{fill:url(#SVGID_8_);}
	.st8{fill:url(#SVGID_9_);}
	.st9{fill:url(#SVGID_10_);}
	.st10{fill:url(#SVGID_11_);}
	.st11{fill:url(#SVGID_12_);}
	.st12{fill:#F67202;}
	.st13{fill:url(#SVGID_13_);}
	.st14{fill:#CA1E02;}
	.st15{fill:url(#SVGID_14_);}
	.st16{fill:url(#SVGID_15_);}
	.st17{fill:url(#SVGID_16_);}
	.st18{fill:url(#SVGID_17_);}
	.st19{fill:url(#SVGID_18_);}
	.st20{fill:url(#SVGID_19_);}
	.st21{fill:url(#SVGID_20_);}
	.st22{fill:url(#SVGID_21_);}
	.st23{fill:url(#SVGID_22_);}
	.st24{fill:url(#SVGID_23_);}
	.st25{fill:url(#SVGID_24_);}
	.st26{fill:url(#SVGID_25_);}
	.st27{fill:url(#SVGID_26_);}
	.st28{fill:#FDDB47;}
	.st29{fill:#F6770E;}
	.st30{fill:#FEE24C;}
	.st31{fill:#EA2050;}
</style>
<g>
	<radialGradient id="SVGID_1_" cx="1487.8193" cy="-14.1515" r="1.3942" gradientUnits="userSpaceOnUse">
		<stop  offset="0" style="stop-color:#FEF150"/>
		<stop  offset="0.2375" style="stop-color:#FEED50"/>
		<stop  offset="0.4751" style="stop-color:#FEE150"/>
		<stop  offset="0.7128" style="stop-color:#FFCD50"/>
		<stop  offset="0.9494" style="stop-color:#FFB150"/>
		<stop  offset="1" style="stop-color:#FFAA50"/>
	</radialGradient>
	<path class="st0" d="M1487.2-16c0,0,0.5,0.9,1.3,3.7C1488.6-14.7,1488.2-16,1487.2-16z"/>
</g>
<g>
	
		<radialGradient id="SVGID_2_" cx="1268.8822" cy="215.7939" r="285.8527" gradientTransform="matrix(1 -6.808294e-03 6.808294e-03 1 -281.9601 314.1651)" gradientUnits="userSpaceOnUse">
		<stop  offset="0" style="stop-color:#FEF150"/>
		<stop  offset="0.2375" style="stop-color:#FEED50"/>
		<stop  offset="0.4751" style="stop-color:#FEE150"/>
		<stop  offset="0.7128" style="stop-color:#FFCD50"/>
		<stop  offset="0.9494" style="stop-color:#FFB150"/>
		<stop  offset="1" style="stop-color:#FFAA50"/>
	</radialGradient>
	<path class="st1" d="M896.9,321.9c-2.8,1.6-5.7,3.2-8.5,4.9c0.4-5,0.8-10,1.1-15.1c0.1-1.5,0.1-3,0.2-4.4c-1.1,1.1-2.4,2.1-3.3,3.4
		c-5.1,7.2-10.1,14.5-15.1,21.8c-3.6,5.2-7,10.6-10.4,15.9c0,0,0-0.1,0-0.1c0,0.5,0,0.9-0.1,1.4c-16.1,12.5-32.2,25-48.4,37.6
		c-1.9-8.1-3.8-16.1-5.8-24.2c-0.3-1.2-0.8-2.3-1.3-3.5c-0.9,1.1-2,2.1-2.6,3.3c-3.8,7.6-8,15.1-10.9,23c-2.6,7-3.7,14.5-5.5,21.7
		c-4.2,3-3.5,5.7,0.7,7.9c2.7,1.4,2.3,2.4,0.6,4.6c-9.4,11.8-18.5,23.7-27.8,35.6c-7-49.3-10.7-98.8-4.6-148.4
		c2.1-17.1,7.7-33.8,12.6-50.4c1.5-5.1,6.2-9.4,9.5-14c0.3-0.5,1.2-0.6,1.8-0.9c0.1,0.5,0.3,1,0.3,1.5c-0.1,1.9-0.3,3.8-0.4,5.6
		c-0.9,20.4-1.9,40.8,3.2,60.8c2.4,9.5,6.8,18.1,13.8,24.9c15.5,15.1,37.9,15.8,54.4,1.8c15.4-13.1,23.2-30.7,26.5-50
		c2.6-15.2,3.7-30.7,4.3-46.1c0.9-24.4,1.1-49,9.4-72.1c8.8-24.8,19.5-49.1,30.4-73.1c7.1-15.6,16.2-30.2,24.1-45.5
		c5.2-10.1,9.6-20.5,14.5-30.7c0.4-0.8,1-1.4,1.6-2c0.2,0.9,0.7,1.7,0.6,2.6c-0.3,3.9-0.9,7.9-1.2,11.8c-2.2,22,1.5,43.7,4.1,65.4
		c3.2,26.8,6,53.6,9.5,80.4c1.6,11.9,4.2,23.7,7.3,35.4c1.3,4.9,4.3,9.7,7.5,13.8c12.9,16.2,35.5,13.5,44.6-5.2
		c4.5-9.3,5.4-19.3,4.7-29.3c-0.7-10.2-2.2-20.2-3.3-30.4c-0.1-0.8,0-1.6,0-2.5c0.7,0.6,1.5,1.1,2,1.8
		c24.1,33.6,48.8,66.8,71.8,101.1c6.1,9.1,7.7,21.5,10.1,32.7c7.2,33.1,4.7,66-4.3,98.5c-9.3-7.2-18.6-14.4-28-21.5
		c-0.8-0.7-1.5-1.5-2.3-2.2l0.1,0.1c-0.9-2-1-4.9-4.5-3.3c-7.3-5.6-14.5-11.1-21.8-16.7c2.4-3.3,5.5-6.3,6.9-10
		c11.7-28.7,9-56.7-4.9-83.9c-0.3-0.6-0.8-1.1-1.2-1.7c-0.5,0.5-1.1,1-1.3,1.6c-3.8,11.2-9.4,22.2-10.8,33.8
		c-2.1,16.9-1.1,34.1-1.4,51.1c-7.6-5.6-15.1-11.2-22.7-16.7c-1.1-0.8-2.5-1.3-3.8-1.9c0.2,1.4,0.2,2.9,0.7,4.1
		c9.8,21,19.8,41.9,29.6,62.9c7,15,13.9,30.1,20.8,45.1c-14.4,14.8-36.3,12.7-48.7-5.3c-4.9-7.2-9.5-15.4-11.3-23.8
		c-3-13.5-3.7-27.5-5.2-41.4c-1.5-13.1-1.8-26.4-4.5-39.2c-5.5-26.3-17.6-50.1-30.1-73.6c-8.3-15.7-16.7-31.3-25.1-46.9
		c-0.6-1.1-1.3-2.1-1.9-3.2c-0.1,1.2-0.2,2.4-0.2,3.7c0.2,12.4,1.4,24.9,0.4,37.1c-2,25.7-5.2,51.3-8,77
		c-1.3,11.6-2.4,23.4-8.2,33.9c-4.4,7.9-10.9,12.5-20.3,11.6c-8.8-0.8-13.7-6.4-16.7-14.2c-0.7-1.7-1.5-3.4-2.2-5.1
		c2.5-5.6,5.1-11.1,7.5-16.7c0.8-1.8,1-3.9,1.5-5.8c0.1-0.2,0.3-0.3,0.4-0.5C897.2,321.6,897,321.7,896.9,321.9z M916,235.9
		c0.5-16.5-7.3-30.7-12-45.7c-0.2-0.6-0.9-0.9-1.4-1.4c-0.4,0.8-1,1.5-1.3,2.4c-2.9,8-6,15.9-8.5,23.9c-4.5,14.5-1.8,28.4,5,41.4
		c1.4,2.8,5.5,5.5,8.6,5.8c4.4,0.4,6.6-3.9,7.3-8C914.7,248.2,915.2,242.1,916,235.9z"/>
	
		<radialGradient id="SVGID_3_" cx="1268.8822" cy="215.7939" r="285.8527" gradientTransform="matrix(1 -6.808294e-03 6.808294e-03 1 -281.9601 314.1651)" gradientUnits="userSpaceOnUse">
		<stop  offset="0" style="stop-color:#FEF150"/>
		<stop  offset="0.2375" style="stop-color:#FEED50"/>
		<stop  offset="0.4751" style="stop-color:#FEE150"/>
		<stop  offset="0.7128" style="stop-color:#FFCD50"/>
		<stop  offset="0.9494" style="stop-color:#FFB150"/>
		<stop  offset="1" style="stop-color:#FFAA50"/>
	</radialGradient>
	<path class="st2" d="M808.5,629.6c1.5,9.7,3.2,19.5,4.5,29.3c1.4,11,5.1,14.5,16.1,14.8c-6,4.2-12.1,2.5-18.2,0.1
		c-3.8-1.5-7.6-3-11.4-4.5c-0.1-0.2-0.3-0.3-0.4-0.5c0,0.1,0,0.3,0,0.3c0.1,0.1,0.3,0.1,0.4,0.2c3.4,4.7,6.5,9.5,10.1,14
		c3.7,4.6,7.7,8.8,11.6,13.2c-14.9-9.1-30.7-17-44.5-27.5c-36.2-27.7-62.5-63-77-106.6c-7.2-21.7-9.3-44.2-9.1-66.9
		c0-1.2,0.4-2.4,0.6-3.6c0.4,1.2,0.8,2.4,1.3,3.5c3.9,8.5,6.5,18,12,25.3c13.4,17.7,34.4,16.6,47.3-1.4c0.4-0.6,1-1.1,1.5-1.7
		c6.1,10.2,12.1,20.3,18.2,30.5c-2.2,17.4,0.1,34.5,2.2,51.7c0.8,7,2.4,13.5,9.1,17.1C791.3,621.4,799.9,625.4,808.5,629.6z"/>
	
		<radialGradient id="SVGID_4_" cx="1268.8822" cy="215.7939" r="285.8527" gradientTransform="matrix(1 -6.808294e-03 6.808294e-03 1 -281.9601 314.1651)" gradientUnits="userSpaceOnUse">
		<stop  offset="0" style="stop-color:#FEF150"/>
		<stop  offset="0.2375" style="stop-color:#FEED50"/>
		<stop  offset="0.4751" style="stop-color:#FEE150"/>
		<stop  offset="0.7128" style="stop-color:#FFCD50"/>
		<stop  offset="0.9494" style="stop-color:#FFB150"/>
		<stop  offset="1" style="stop-color:#FFAA50"/>
	</radialGradient>
	<path class="st3" d="M1129.6,579.3c4.9-9.9,9.5-20,14.8-29.7c8.5-15.7,17.2-31.3,26.1-46.7c5.3-9.2,4.9-18.2,0.1-27.4
		c-3-5.8-5.9-11.6-8.9-17.4c8.9-20.4,13.9-41.8,16.1-63.9c0.1-1.1,0.5-2.2,0.8-3.3c0.7,1,1.5,1.9,1.9,3
		c14.9,41.7,21.1,84.8,18.5,129c-0.7,11.7-2.6,23.2-3.7,34.9c-0.5,6.1-3.1,10.9-8,14.2c-7.4,4.9-14.8,9.6-22.6,13.8
		c-6.1,3.3-12.7,5.8-19,8.6c1.1-11.7,2.2-23.5,3.2-35.2c0.2-2.2-0.2-4.5-0.2-6.7c-0.8,2-1.7,3.9-2.5,5.9
		C1143,567.3,1139.1,575.6,1129.6,579.3z"/>
	<radialGradient id="SVGID_5_" cx="965.649" cy="534.2006" r="207.3581" gradientUnits="userSpaceOnUse">
		<stop  offset="0" style="stop-color:#FEF150"/>
		<stop  offset="0.2375" style="stop-color:#FEED50"/>
		<stop  offset="0.4751" style="stop-color:#FEE150"/>
		<stop  offset="0.7128" style="stop-color:#FFCD50"/>
		<stop  offset="0.9494" style="stop-color:#FFB150"/>
		<stop  offset="1" style="stop-color:#FFAA50"/>
	</radialGradient>
	<path class="st4" d="M936.4,733.9c-34.9,0-64.5-6.2-90.6-19c-5.8-2.8-11.3-6.3-16.6-9.7c-2.4-1.5-4.9-3.1-7.3-4.5l-2.4-1.4l1.2-2
		l-1.9,1.4c-1.2-1.3-2.4-2.6-3.6-4c-2.7-3-5.5-6.1-8.1-9.4c-2.6-3.2-4.9-6.6-7.2-9.8c-1-1.4-2-2.8-3-4.3l-1.7-2.4l3.7-3.5l2,0.8
		l3.3,1.3c2.7,1.1,5.3,2.1,8,3.2c2.9,1.1,5.9,2.2,8.8,2.2c2.3,0,4.2-0.6,6.2-2l0.8-0.5l0.9-0.1c3.5-0.2,7-0.5,10.5-0.7
		c7.8-0.6,15.9-1.1,23.9-1.5c5.6-0.3,11.2-0.4,16.6-0.5c6.4-0.2,13.1-0.3,19.6-0.7c0.4,0,0.8,0,1.1,0c1,0,3.8,0,5.4,2.2
		c1.5,2.2,0.6,4.8-0.1,6.7c-4.8,13.1-9.6,26.4-13.8,38.2c7.2-5.9,14.4-11.9,21.6-17.8c6.1-5,12.1-10,18.2-15
		c0.9-0.7,1.8-1.3,2.6-1.7c0.3-0.2,0.6-0.4,0.9-0.6l4.1-2.6l1,4.7c0.1,0.4,0.2,0.7,0.3,1.1c0.3,1.1,0.6,2.3,0.6,3.7
		c0.1,11.7,0.1,23.7,0.1,35.2l0,12.9L936.4,733.9z"/>
	<radialGradient id="SVGID_6_" cx="960.9826" cy="552.0912" r="185.4441" gradientUnits="userSpaceOnUse">
		<stop  offset="0" style="stop-color:#FEF150"/>
		<stop  offset="0.2375" style="stop-color:#FEED50"/>
		<stop  offset="0.4751" style="stop-color:#FEE150"/>
		<stop  offset="0.7128" style="stop-color:#FFCD50"/>
		<stop  offset="0.9494" style="stop-color:#FFB150"/>
		<stop  offset="1" style="stop-color:#FFAA50"/>
	</radialGradient>
	<path class="st5" d="M821.3,696.5c-3.9-4.4-7.9-8.6-11.6-13.2c-3.6-4.5-6.8-9.3-10.1-14l0,0c3.8,1.5,7.6,3,11.4,4.5
		c6.1,2.4,12.1,4,18.2-0.1c11.5-0.8,22.9-1.7,34.4-2.2c12.1-0.6,24.2-0.5,36.2-1.2c4.4-0.2,4.2,1.1,3,4.4
		c-5.3,14.3-10.4,28.7-15.6,43.1c-0.5,1.3-0.5,2.8-0.7,4.3c1.3-0.7,2.7-1.3,3.8-2.2c14.6-12,29.1-24,43.7-36c1-0.8,2.1-1.4,3.2-2.1
		c0.3,1.4,0.9,2.7,0.9,4.1c0.1,14.9,0.1,29.8,0.1,44.7c-31.6,0.2-62.3-4.6-90.9-18.7c-8.2-4-15.8-9.3-23.7-14.1
		C822.8,697.3,822,696.9,821.3,696.5L821.3,696.5z"/>
	
		<radialGradient id="SVGID_7_" cx="1268.8822" cy="215.7939" r="285.8527" gradientTransform="matrix(1 -6.808294e-03 6.808294e-03 1 -281.9601 314.1651)" gradientUnits="userSpaceOnUse">
		<stop  offset="0" style="stop-color:#FEF150"/>
		<stop  offset="0.2375" style="stop-color:#FEED50"/>
		<stop  offset="0.4751" style="stop-color:#FEE150"/>
		<stop  offset="0.7128" style="stop-color:#FFCD50"/>
		<stop  offset="0.9494" style="stop-color:#FFB150"/>
		<stop  offset="1" style="stop-color:#FFAA50"/>
	</radialGradient>
	<path class="st6" d="M826.8,171.1c0.1,12.6,0.4,21.9,0.1,31.1c-0.2,3.6-1.4,7.5-3.1,10.7c-4.4,8.5-14.1,9-19.8,1.4
		c-0.9-1.2-1.8-2.5-2.3-3.9c-7.5-20.8-13.9-41.9-12.5-64.4c0.3-5.2,1.3-10.5,2.9-15.5c4.1-12.5,8.7-24.9,13.1-37.3
		c0.3-1,1.1-1.8,1.6-2.7c0.6,0.9,1.3,1.7,1.7,2.7C818.4,119.5,830.1,145.3,826.8,171.1z"/>
	
		<radialGradient id="SVGID_8_" cx="1268.8822" cy="215.7939" r="285.8527" gradientTransform="matrix(1 -6.808294e-03 6.808294e-03 1 -281.9601 314.1651)" gradientUnits="userSpaceOnUse">
		<stop  offset="0" style="stop-color:#FEF150"/>
		<stop  offset="0.2375" style="stop-color:#FEED50"/>
		<stop  offset="0.4751" style="stop-color:#FEE150"/>
		<stop  offset="0.7128" style="stop-color:#FFCD50"/>
		<stop  offset="0.9494" style="stop-color:#FFB150"/>
		<stop  offset="1" style="stop-color:#FFAA50"/>
	</radialGradient>
	<path class="st7" d="M1028.9,720.9c-0.1-1.8-0.2-3.6-0.2-5.5c1.3-0.7,2.6-1.4,3.9-2.1c11.4-5.4,23.4-9.8,33.9-16.5
		c11.5-7.3,21.6-16.6,32.3-25.1c2-2.3,4-4.6,6.1-6.9c1.8-1.5,3.9-2.8,5.5-4.5c3.2-3.3,6.2-6.9,9.3-10.3c8.1,6.1,16.8,6.1,25.7,2.5
		c6.1-2.5,11.9-5.6,17.8-8.5c0.1,0.2,0.3,0.4,0.4,0.6c-9.2,16.6-21.9,30.1-36.8,41.6c-30.3,23.3-65.4,34.8-102.7,40.2
		c-14.9,2.2-30,2.5-45.1,3.6c0-1.3-0.1-2.6-0.1-3.8c4.1-0.6,8.2-0.8,12.2-1.8c10.1-2.5,20-5.4,30.1-8.1c2.5,1.5,5.1,3.1,7.6,4.6
		c0.2,0.1,0.4,0.3,0.6,0.4C1029.2,721.3,1029,721.1,1028.9,720.9z"/>
	
		<radialGradient id="SVGID_9_" cx="1268.8822" cy="215.7939" r="285.8527" gradientTransform="matrix(1 -6.808294e-03 6.808294e-03 1 -281.9601 314.1651)" gradientUnits="userSpaceOnUse">
		<stop  offset="0" style="stop-color:#FEF150"/>
		<stop  offset="0.2375" style="stop-color:#FEED50"/>
		<stop  offset="0.4751" style="stop-color:#FEE150"/>
		<stop  offset="0.7128" style="stop-color:#FFCD50"/>
		<stop  offset="0.9494" style="stop-color:#FFB150"/>
		<stop  offset="1" style="stop-color:#FFAA50"/>
	</radialGradient>
	<path class="st8" d="M1175.6,293c-0.9,15.3-4.1,29.6-11.9,42.4c-2.4,3.9-5.5,7.9-9.3,10.3c-2.9,1.9-7.5,2.3-11,1.6
		c-4.5-1-6.1-5.5-6-9.9c0.1-6.4,0.9-12.8,1.1-19.2c0.3-12.8-0.9-25.7,0.6-38.4c2.1-17,6.1-33.7,9.3-50.5c0.1-0.7,0.5-1.4,0.8-2.1
		c0.5,0.4,1.3,0.7,1.5,1.3c7.9,18.4,20.1,35.1,23.9,55.3C1175.2,287,1175.3,290.2,1175.6,293z"/>
	
		<radialGradient id="SVGID_10_" cx="1268.8822" cy="215.7939" r="285.8527" gradientTransform="matrix(1 -6.808294e-03 6.808294e-03 1 -281.9601 314.1651)" gradientUnits="userSpaceOnUse">
		<stop  offset="0" style="stop-color:#FEF150"/>
		<stop  offset="0.2375" style="stop-color:#FEED50"/>
		<stop  offset="0.4751" style="stop-color:#FEE150"/>
		<stop  offset="0.7128" style="stop-color:#FFCD50"/>
		<stop  offset="0.9494" style="stop-color:#FFB150"/>
		<stop  offset="1" style="stop-color:#FFAA50"/>
	</radialGradient>
	<path class="st9" d="M999.5,64.6c-1.3-13.5,1.9-26.2,6.4-38.7c2.8-7.8,5.3-15.7,7.9-23.6c0.3-0.8,0.9-1.6,1.4-2.4
		c0.4,0.5,1,1,1.2,1.5c5.1,14.8,11.2,29.3,14.8,44.4c3.7,15.7-0.5,31-7.2,45.5c-1.1,2.5-3,4.9-5.1,6.6c-5.3,4.5-12.6,2.9-15.2-4.1
		c-2.3-6.4-3-13.5-4-20.4C999.2,70.7,999.5,67.6,999.5,64.6z"/>
	<radialGradient id="SVGID_11_" cx="930.5523" cy="550.7396" r="214.1745" gradientUnits="userSpaceOnUse">
		<stop  offset="0" style="stop-color:#FEF150"/>
		<stop  offset="0.2375" style="stop-color:#FEED50"/>
		<stop  offset="0.4751" style="stop-color:#FEE150"/>
		<stop  offset="0.7128" style="stop-color:#FFCD50"/>
		<stop  offset="0.9494" style="stop-color:#FFB150"/>
		<stop  offset="1" style="stop-color:#FFAA50"/>
	</radialGradient>
	<path class="st10" d="M1102.8,656c0.8-5.7,1.6-11.3,2.5-17c3.3-22.7,12.1-43,20.2-59.9c0.5-1,1.2-1.6,1.6-2
		c0.1-0.1,0.1-0.1,0.2-0.2l0.5-0.5l0.7-0.3c8.2-3.3,11.7-10.8,14.8-18.8c0.5-1.4,1.1-2.8,1.7-4.1c0.3-0.6,0.5-1.2,0.8-1.8l6.5,1.2
		c0,0.7,0.1,1.3,0.1,2c0.1,1.6,0.3,3.3,0.1,5.1c-0.7,8.7-1.6,17.6-2.4,26.1l-0.9,9.4l-0.1,0.3c-5.3,19.5-14,37.8-25.8,54.4
		c-0.1,0.1-0.1,0.3-0.1,0.5c-0.1,0.3-0.2,0.6-0.3,0.9l-0.2,0.6l-0.4,0.5c-0.9,1-1.8,2-2.7,3c-2.1,2.4-4.4,5-6.7,7.4
		c-1.3,1.4-2.7,2.4-4.1,3.5c-0.6,0.4-1.1,0.9-1.7,1.3l-6.7,5.4L1102.8,656z"/>
	<radialGradient id="SVGID_12_" cx="960.9826" cy="552.0912" r="185.4441" gradientUnits="userSpaceOnUse">
		<stop  offset="0" style="stop-color:#FEF150"/>
		<stop  offset="0.2375" style="stop-color:#FEED50"/>
		<stop  offset="0.4751" style="stop-color:#FEE150"/>
		<stop  offset="0.7128" style="stop-color:#FFCD50"/>
		<stop  offset="0.9494" style="stop-color:#FFB150"/>
		<stop  offset="1" style="stop-color:#FFAA50"/>
	</radialGradient>
	<path class="st11" d="M1119.6,650.2c-3.1,3.4-6.1,7-9.3,10.3c-1.6,1.7-3.6,3-5.5,4.5c1.2-8.5,2.4-17,3.7-25.5
		c3-20.9,10.8-40.1,19.9-58.9c0.2-0.5,0.8-0.8,1.2-1.2c9.5-3.8,13.3-12,16.7-20.7c0.8-2,1.6-3.9,2.5-5.9c0.1,2.2,0.4,4.5,0.2,6.7
		c-1,11.7-2.2,23.5-3.2,35.2c-5.2,19.3-13.7,37.1-25.3,53.4C1120,648.7,1119.9,649.5,1119.6,650.2z"/>
	<path class="st12" d="M821.2,696.4c0.8,0.5,1.6,1,2.4,1.4C822.8,697.3,822,696.9,821.2,696.4z"/>
	
		<radialGradient id="SVGID_13_" cx="1268.8822" cy="215.7939" r="285.8527" gradientTransform="matrix(1 -6.808294e-03 6.808294e-03 1 -281.9601 314.1651)" gradientUnits="userSpaceOnUse">
		<stop  offset="0" style="stop-color:#FEF150"/>
		<stop  offset="0.2375" style="stop-color:#FEED50"/>
		<stop  offset="0.4751" style="stop-color:#FEE150"/>
		<stop  offset="0.7128" style="stop-color:#FFCD50"/>
		<stop  offset="0.9494" style="stop-color:#FFB150"/>
		<stop  offset="1" style="stop-color:#FFAA50"/>
	</radialGradient>
	<path class="st13" d="M1163.1,644.2c0.2-0.2,0.5-0.5,0.7-0.7c-0.1,0.4-0.2,0.8-0.3,1.3C1163.4,644.6,1163.2,644.4,1163.1,644.2z"/>
	<g>
		<path class="st14" d="M860.8,348.3C860.9,348.3,860.9,348.3,860.8,348.3C860.9,348.3,860.9,348.2,860.8,348.3L860.8,348.3z"/>
		<path class="st14" d="M889.7,1047.2c0.3,0.1,0.5,0.2,0.8,0.4l0,0c0,0,0-0.1,0-0.1c0,0,0,0-0.1,0.1
			C890.2,1047.4,890,1047.3,889.7,1047.2z"/>
	</g>
	<radialGradient id="SVGID_14_" cx="959.4671" cy="552.6548" r="191.8137" gradientUnits="userSpaceOnUse">
		<stop  offset="0" style="stop-color:#FEF150"/>
		<stop  offset="0.2375" style="stop-color:#FEED50"/>
		<stop  offset="0.4751" style="stop-color:#FEE150"/>
		<stop  offset="0.7128" style="stop-color:#FFCD50"/>
		<stop  offset="0.9494" style="stop-color:#FFB150"/>
		<stop  offset="1" style="stop-color:#FFAA50"/>
	</radialGradient>
	<path class="st15" d="M847.3,640.3c-1.9,0-4.4-1-5.2-5.8c-5-30.2-17.9-57.7-31.1-82.9c-0.8-1.6-1.5-3.2-2.2-4.8
		c-0.3-0.7-0.6-1.4-0.9-2.1l-3.7-8.2l8.1,3.7c3.4,1.5,6.7,2.3,9.7,2.3c8.1,0,13.6-5.4,15.2-14.8c0.9-5.2,0.6-11.6-0.8-18.9
		c-2.9-14.7-6.2-29.7-9.5-44.1c-1.3-5.7-2.5-11.4-3.8-17.1l-1.8-8.2l7,4.7c0.7,0.5,1.4,0.9,2.1,1.4c1.7,1.1,3.5,2.2,5.2,3.7
		c0.3,0.2,0.5,0.4,0.7,0.6c0.1-0.2,0.3-0.5,0.4-0.8c11.5-25.7,23.4-51.8,34.9-77l7.8-17.2c1.2-2.7,2.5-5.5,3.8-8.1
		c0.6-1.2,1.2-2.5,1.8-3.7l3.2-6.7l3,6.8c0.2,0.5,0.5,1,0.7,1.6c0.5,1.2,1.1,2.4,1.6,3.7c3,7.7,7.3,11.4,13.8,12
		c0.7,0.1,1.3,0.1,2,0.1c6.4,0,11.4-3.3,15.1-10c5.2-9.5,6.4-20,7.6-31.2l0.1-1.4c0.7-6,1.3-12,2-18c2.2-19.3,4.4-39.3,6-58.9
		c0.7-8.2,0.3-16.7,0-25c-0.2-3.9-0.3-7.9-0.4-11.9c0-1,0-1.9,0.1-2.8c0-0.4,0-0.7,0.1-1.1l0.5-10.9l5.7,9.3c0.2,0.3,0.4,0.6,0.6,1
		c0.5,0.8,1,1.5,1.4,2.4l2.5,4.7c7.5,14.1,15.1,28.2,22.5,42.2c13.4,25.3,25,48.3,30.5,74.5c1.8,8.8,2.6,17.9,3.4,26.7
		c0.4,4.2,0.7,8.6,1.2,12.8c0.4,3.9,0.8,7.9,1.2,11.7c0.9,9.7,1.9,19.8,4,29.3c1.5,6.8,5,14.2,10.8,22.6c6,8.7,14.6,13.6,23.8,13.6
		c7.2,0,14.2-3.1,19.7-8.8l3.3-3.4l2.1,4.2c0.8,1.5,1.5,3,2.3,4.5c1.9,3.6,3.8,7.3,5.5,11.1c0,0,0,0.1,0,0.1
		c1.5-1.3,3.1-2.4,4.6-3.5c0.6-0.4,1.3-0.9,1.9-1.3l3.5-2.6l4.4,11c2.7,6.8,5.5,13.9,8.3,20.9c0.7,1.9,1.5,4.1,1.3,6.3
		c-0.5,5.8-1,11.6-1.6,17.3c-1.1,10.8-2.1,22.1-2.6,33.1c-0.3,6.2,0.4,12.4,1.1,19c0.3,2.9,0.6,5.9,0.9,8.9l0.1,0.8l-0.3,0.7
		c-1.2,2.8-2.4,5.7-3.7,8.4c-2.7,6-5.4,12.2-7.4,18.5c-4.6,14.3-8.6,29-12.5,43.3l-1,3.7c-0.7,2.4-1.6,6-5.6,6
		c-1.2,0-2.5-0.4-4.2-1.3c-16.4-8.8-35-14.5-58.6-17.9c-2.5-0.4-4.9-1-6.2-3.2c-1.5-2.5-0.4-5.4,0.2-6.9
		c5.6-15.2,11.2-30.6,16.5-45.6l2.3-6.5l-2.8,2.3c-10,8.2-20,16.3-30.1,24.4c-1.9,1.6-4,3.1-5.9,4.5c-0.9,0.7-1.8,1.3-2.7,2
		l-4.9,3.7l-0.5-6.1c-0.1-1.1-0.2-2.1-0.3-3.2c-0.3-2.4-0.5-4.9-0.5-7.4c-0.1-9.4-0.2-18.7-0.2-28.1c-0.1-13.1-0.2-26.6-0.4-39.9
		c0-2.5,0.1-5.3,2.1-7.3c1.9-1.9,4.6-2.2,6.5-2.2l0.2,0c0.7,0,1.4,0,2.1,0c2,0,3.1-0.1,3.6-0.2c0-1.2-0.5-3.7-0.8-5.8
		c-10.7-59.3-21.4-118.6-32.1-177.8c-2.7,15.8-4.9,29.3-7,41.9c-2,12.3-4.1,24.7-6.1,37c-5.6,34.2-11.5,69.5-17.4,104.2
		c-0.1,0.5-0.1,0.9-0.2,1.2c0.2,0,0.3,0,0.6,0c0.3,0,0.6,0,0.9,0c1.5,0,2.8-0.1,3.9-0.1c10.3,0,10.3,5,10.4,14
		c0.2,23.4,0.3,46.8,0.4,70.2c0,1.2-0.1,2.4-0.3,3.5c-0.1,0.4-0.1,0.9-0.2,1.3l-0.5,5l-4.4-2.4c-0.4-0.2-0.8-0.4-1.2-0.6
		c-1.1-0.5-2.3-1.1-3.5-2c-7.3-5.9-14.7-11.8-22-17.6c-5.9-4.7-11.8-9.5-17.7-14.2c6.5,17.4,13.2,35.4,20,53c0.8,2.2,1.6,4.7,0.3,7
		c-1.3,2.3-3.9,3-6.1,3.4c-20.8,3.6-38.3,9.4-53.5,17.7l-0.2,0.1C850.2,639.6,848.8,640.3,847.3,640.3z"/>
	<radialGradient id="SVGID_15_" cx="960.9826" cy="552.0912" r="185.4441" gradientUnits="userSpaceOnUse">
		<stop  offset="0" style="stop-color:#FEF150"/>
		<stop  offset="0.2375" style="stop-color:#FEED50"/>
		<stop  offset="0.4751" style="stop-color:#FEE150"/>
		<stop  offset="0.7128" style="stop-color:#FFCD50"/>
		<stop  offset="0.9494" style="stop-color:#FFB150"/>
		<stop  offset="1" style="stop-color:#FFAA50"/>
	</radialGradient>
	<path class="st16" d="M888,344.5c0.7,1.7,1.5,3.4,2.2,5.1c3,7.7,7.9,13.3,16.7,14.2c9.4,0.9,16-3.7,20.3-11.6
		c5.8-10.5,6.9-22.2,8.2-33.9c2.8-25.6,5.9-51.3,8-77c1-12.3-0.2-24.8-0.4-37.1c0-1.2,0.1-2.4,0.2-3.7c0.6,1.1,1.4,2.1,1.9,3.2
		c8.4,15.6,16.7,31.3,25.1,46.9c12.5,23.5,24.6,47.3,30.1,73.6c2.7,12.8,3,26.2,4.5,39.2c1.6,13.8,2.2,27.8,5.2,41.4
		c1.9,8.4,6.4,16.6,11.3,23.8c12.4,18,34.3,20.1,48.7,5.3c2.6,5.2,5.3,10.3,7.7,15.5c1.4,3.1,2.7,3.6,5.3,1.3
		c1.9-1.7,4.2-3.1,6.3-4.7c3.7,9.3,7.4,18.5,11,27.8c0.6,1.5,1.2,3.3,1.1,4.8c-1.4,16.8-3.5,33.6-4.3,50.5c-0.4,9.4,1.2,18.9,2,28.3
		c-3.8,9-8.2,17.9-11.2,27.2c-5,15.6-9.2,31.4-13.5,47.2c-0.9,3.2-1.3,4.6-4.9,2.6c-18.7-10.1-38.9-15.3-59.8-18.2
		c-4.3-0.6-4.8-1.8-3.4-5.6c6.7-18,13.1-36.2,19.6-54.3c0.8-2.3,1.4-4.7,2.1-7c0-0.5,0-0.9,0.1-1.4c-0.3,0.2-0.5,0.5-0.8,0.7
		c-13.5,10.9-26.9,21.9-40.4,32.8c-2.7,2.2-5.6,4.3-8.5,6.4c-0.3-3.5-0.8-6.9-0.9-10.4c-0.2-22.6-0.3-45.3-0.6-68
		c-0.1-4.1,0.5-6.1,5.4-6c9.9,0.1,10-0.2,8.2-9.9c-11.4-63.1-22.8-126.2-34.2-189.3c-0.3-1.4-0.9-2.8-1.4-4.2c-0.4,1.3-1,2.7-1.2,4
		c-3,17.8-6,35.7-9,53.6c-7.8,47.1-15.5,94.2-23.5,141.2c-0.8,4.9,0.6,5.3,4.7,5.2c10.7-0.3,10.7-0.2,10.8,10.6
		c0.2,23.4,0.3,46.8,0.4,70.2c0,1.5-0.3,2.9-0.4,4.4c-1.4-0.8-3-1.3-4.2-2.3c-14.6-11.7-29.1-23.4-43.7-35.1
		c-1.1-0.9-2.5-1.3-3.8-1.9c0.3,1.4,0.3,2.9,0.8,4.3c7.2,19.3,14.4,38.5,21.8,57.7c1.4,3.6,1.3,5.1-3.2,5.9
		c-19.1,3.3-37.5,8.7-54.5,18.1c-2.5,1.4-4.1,2.3-4.8-1.9c-5-30-17.5-57.2-31.4-83.9c-1.1-2.2-2-4.4-3-6.7c14.4,6.6,27,0.6,29.6-15
		c1.1-6.5,0.4-13.6-0.9-20.1c-4.1-20.5-8.8-40.8-13.3-61.2c2.3,1.6,4.8,2.9,6.9,4.8c3,2.6,4.6,2.6,6.4-1.4
		c14.1-31.4,28.4-62.8,42.7-94.2C884.2,352.3,886.1,348.4,888,344.5z"/>
	<radialGradient id="SVGID_16_" cx="828.2015" cy="497.5433" r="179.0287" gradientUnits="userSpaceOnUse">
		<stop  offset="0" style="stop-color:#FEF150"/>
		<stop  offset="0.2375" style="stop-color:#FEED50"/>
		<stop  offset="0.4751" style="stop-color:#FEE150"/>
		<stop  offset="0.7128" style="stop-color:#FFCD50"/>
		<stop  offset="0.9494" style="stop-color:#FFB150"/>
		<stop  offset="1" style="stop-color:#FFAA50"/>
	</radialGradient>
	<path class="st17" d="M826.4,447.1c4.5,20.4,9.2,40.8,13.3,61.2c1.3,6.5,1.9,13.6,0.9,20.1c-2.6,15.6-15.2,21.6-29.6,15
		c-5.2-8.9-10.5-17.8-15.6-26.7c-1.8-3.1-3.2-6.3-4.8-9.5c-1.5-7.8-3.1-15.5-4.6-23.3c7.4-10.4,14.7-20.9,22.1-31.3
		c2.1-2.9,5-5.3,6.7-8.3c2.6-4.5,5.2-3.9,8.3-0.9C824.2,444.5,825.3,445.8,826.4,447.1z"/>
	
		<radialGradient id="SVGID_17_" cx="1268.8822" cy="215.7939" r="285.8527" gradientTransform="matrix(1 -6.808294e-03 6.808294e-03 1 -281.9601 314.1651)" gradientUnits="userSpaceOnUse">
		<stop  offset="0" style="stop-color:#FEF150"/>
		<stop  offset="0.2375" style="stop-color:#FEED50"/>
		<stop  offset="0.4751" style="stop-color:#FEE150"/>
		<stop  offset="0.7128" style="stop-color:#FFCD50"/>
		<stop  offset="0.9494" style="stop-color:#FFB150"/>
		<stop  offset="1" style="stop-color:#FFAA50"/>
	</radialGradient>
	<path class="st18" d="M1099.1,557.4c-0.7-9.4-2.4-18.9-2-28.3c0.8-16.9,2.9-33.6,4.3-50.5c0.1-1.6-0.5-3.3-1.1-4.8
		c-3.6-9.3-7.3-18.5-11-27.8c2.4-2.1,4.6-4.5,7.2-6.2c1-0.6,3.7,0,4.5,0.9c11.3,14.8,22.5,29.6,33.4,44.7c1.1,1.6,1.4,5,0.5,6.7
		C1123.2,514,1111.1,535.7,1099.1,557.4z"/>
	<radialGradient id="SVGID_18_" cx="950.4142" cy="528.3176" r="215.3169" gradientUnits="userSpaceOnUse">
		<stop  offset="0" style="stop-color:#FEF150"/>
		<stop  offset="0.2375" style="stop-color:#FEED50"/>
		<stop  offset="0.4751" style="stop-color:#FEE150"/>
		<stop  offset="0.7128" style="stop-color:#FFCD50"/>
		<stop  offset="0.9494" style="stop-color:#FFB150"/>
		<stop  offset="1" style="stop-color:#FFAA50"/>
	</radialGradient>
	<path class="st19" d="M1025.6,716.8c-0.8-1.8-1.6-3.7-2.4-5.5c-1.8-4.1-3.6-8.4-5.3-12.6c-1.3-3.4-2.6-6.8-3.8-10.1
		c-1.5-4.2-3.1-8.4-4.8-12.6c-1-2.4-1.8-5.2-0.3-7.6c1.7-2.6,5.1-2.6,6.4-2.6c0.2,0,0.5,0,0.8,0c18.2,0.6,36.8,1,54.7,1.5
		c6.2,0.2,18.9,0.5,18.9,0.5l1.3,0.2l16.7,1l-7,5.5c-3.2,2.5-6.5,5.2-9.6,7.8c-7.3,6-14.8,12.3-23,17.5c-7.5,4.7-15.7,8.4-23.7,11.9
		c-3.5,1.5-7.1,3.1-10.6,4.8c-0.8,0.4-1.6,0.8-2.5,1.3c-0.4,0.2-0.8,0.5-1.3,0.7l-3.2,1.7L1025.6,716.8z"/>
	<radialGradient id="SVGID_19_" cx="960.9826" cy="552.0912" r="185.4441" gradientUnits="userSpaceOnUse">
		<stop  offset="0" style="stop-color:#FEF150"/>
		<stop  offset="0.2375" style="stop-color:#FEED50"/>
		<stop  offset="0.4751" style="stop-color:#FEE150"/>
		<stop  offset="0.7128" style="stop-color:#FFCD50"/>
		<stop  offset="0.9494" style="stop-color:#FFB150"/>
		<stop  offset="1" style="stop-color:#FFAA50"/>
	</radialGradient>
	<path class="st20" d="M1098.8,671.9c-10.7,8.5-20.9,17.8-32.3,25.1c-10.6,6.7-22.6,11.1-33.9,16.5c-1.3,0.6-2.6,1.4-3.9,2.1
		c-2.6-6-5.3-12-7.7-18.1c-3-7.5-5.5-15.2-8.6-22.7c-1.8-4.2-1.1-5.6,3.7-5.5c24.5,0.8,49,1.3,73.4,2c0.4,0.1,0.8,0.1,1.2,0.2
		C1093.5,671.5,1096.2,671.7,1098.8,671.9z"/>
	<radialGradient id="SVGID_20_" cx="1000.0858" cy="542.8588" r="225.9403" gradientUnits="userSpaceOnUse">
		<stop  offset="0" style="stop-color:#FEF150"/>
		<stop  offset="0.2375" style="stop-color:#FEED50"/>
		<stop  offset="0.4751" style="stop-color:#FEE150"/>
		<stop  offset="0.7128" style="stop-color:#FFCD50"/>
		<stop  offset="0.9494" style="stop-color:#FFB150"/>
		<stop  offset="1" style="stop-color:#FFAA50"/>
	</radialGradient>
	<path class="st21" d="M807,632.7c-2.6-1.3-5.1-2.5-7.7-3.8c-5.9-2.9-12.1-5.9-18-9c-8-4.3-9.9-12-10.9-19.6l-0.4-3
		c-2-16.1-4-32.7-1.8-49.5l1.2-9.6l5,8.3c14,23.1,29.3,50.9,37.4,82.4l1.8,7.1L807,632.7z"/>
	<radialGradient id="SVGID_21_" cx="960.9826" cy="552.0912" r="185.4441" gradientUnits="userSpaceOnUse">
		<stop  offset="0" style="stop-color:#FEF150"/>
		<stop  offset="0.2375" style="stop-color:#FEED50"/>
		<stop  offset="0.4751" style="stop-color:#FEE150"/>
		<stop  offset="0.7128" style="stop-color:#FFCD50"/>
		<stop  offset="0.9494" style="stop-color:#FFB150"/>
		<stop  offset="1" style="stop-color:#FFAA50"/>
	</radialGradient>
	<path class="st22" d="M808.5,629.6c-8.6-4.2-17.2-8.3-25.7-12.8c-6.7-3.6-8.3-10.1-9.1-17.1c-2.1-17.2-4.4-34.3-2.2-51.7
		C787.1,573.8,801,600.3,808.5,629.6z"/>
	<radialGradient id="SVGID_22_" cx="955.2407" cy="622.4294" r="50.2671" gradientUnits="userSpaceOnUse">
		<stop  offset="0" style="stop-color:#FEF150"/>
		<stop  offset="0.2375" style="stop-color:#FEED50"/>
		<stop  offset="0.4751" style="stop-color:#FEE150"/>
		<stop  offset="0.7128" style="stop-color:#FFCD50"/>
		<stop  offset="0.9494" style="stop-color:#FFB150"/>
		<stop  offset="1" style="stop-color:#FFAA50"/>
	</radialGradient>
	<path class="st23" d="M1021.1,716.5c-10,2.7-20,5.6-30.1,8.1c-4,1-8.1,1.2-12.2,1.8c-0.1-13.5-0.3-27.1-0.4-40.6
		c0-1.5-0.7-4.8,2.6-2.2C994.5,694.5,1007.8,705.5,1021.1,716.5z"/>
	<radialGradient id="SVGID_23_" cx="1018.2145" cy="607.2827" r="248.7745" gradientUnits="userSpaceOnUse">
		<stop  offset="0" style="stop-color:#FEF150"/>
		<stop  offset="0.2375" style="stop-color:#FEED50"/>
		<stop  offset="0.4751" style="stop-color:#FEE150"/>
		<stop  offset="0.7128" style="stop-color:#FFCD50"/>
		<stop  offset="0.9494" style="stop-color:#FFB150"/>
		<stop  offset="1" style="stop-color:#FFAA50"/>
	</radialGradient>
	<path class="st24" d="M783.2,406.6c0.5-2.2,1-4.4,1.5-6.6c1.1-5.1,2.2-10.4,4.1-15.5c2.2-6,5.2-11.8,8.1-17.4c1-2,2-3.9,3-5.9
		c0.6-1.2,1.5-2.2,2.2-3c0.3-0.3,0.5-0.6,0.7-0.9l3.8-4.7l2.1,5.7c0.1,0.3,0.3,0.7,0.4,1c0.3,0.8,0.7,1.8,1,2.9
		c1.5,6.1,2.9,12.2,4.4,18.3l1.9,8l-35.3,27.6L783.2,406.6z"/>
	<radialGradient id="SVGID_24_" cx="960.9826" cy="552.0912" r="185.4441" gradientUnits="userSpaceOnUse">
		<stop  offset="0" style="stop-color:#FEF150"/>
		<stop  offset="0.2375" style="stop-color:#FEED50"/>
		<stop  offset="0.4751" style="stop-color:#FEE150"/>
		<stop  offset="0.7128" style="stop-color:#FFCD50"/>
		<stop  offset="0.9494" style="stop-color:#FFB150"/>
		<stop  offset="1" style="stop-color:#FFAA50"/>
	</radialGradient>
	<path class="st25" d="M786.5,407.4c1.8-7.3,2.9-14.8,5.5-21.7c2.9-7.9,7.2-15.4,10.9-23c0.6-1.2,1.7-2.2,2.6-3.3
		c0.4,1.2,1,2.3,1.3,3.5c2,8,3.8,16.1,5.8,24.2C803.8,393.9,795.1,400.7,786.5,407.4z"/>
	<radialGradient id="SVGID_25_" cx="981.0855" cy="611.433" r="235.9041" gradientUnits="userSpaceOnUse">
		<stop  offset="0" style="stop-color:#FEF150"/>
		<stop  offset="0.2375" style="stop-color:#FEED50"/>
		<stop  offset="0.4751" style="stop-color:#FEE150"/>
		<stop  offset="0.7128" style="stop-color:#FFCD50"/>
		<stop  offset="0.9494" style="stop-color:#FFB150"/>
		<stop  offset="1" style="stop-color:#FFAA50"/>
	</radialGradient>
	<path class="st26" d="M858,346.4c1.1-1.6,2.1-3.3,3.2-4.9c2.4-3.6,4.8-7.4,7.3-11c4.7-6.9,9.6-14,15.1-21.8
		c0.8-1.2,1.8-2.1,2.7-2.9c0.3-0.3,0.7-0.6,1-0.9l6.2-6.2l-0.4,8.7l-0.1,1.4c0,1-0.1,2.1-0.2,3.1c-0.3,3.5-0.5,7.1-0.8,10.6
		l-0.4,5.9l-1.1,0.9c-1.8,1.5-3.5,3-5.2,4.5c-4.3,3.7-8.7,7.5-13.2,11.1c-2.1,1.7-4.4,3.1-6.6,4.4c-1,0.6-1.9,1.2-2.8,1.8L858,346.4
		z"/>
	<radialGradient id="SVGID_26_" cx="960.9826" cy="552.0912" r="185.4441" gradientUnits="userSpaceOnUse">
		<stop  offset="0" style="stop-color:#FEF150"/>
		<stop  offset="0.2375" style="stop-color:#FEED50"/>
		<stop  offset="0.4751" style="stop-color:#FEE150"/>
		<stop  offset="0.7128" style="stop-color:#FFCD50"/>
		<stop  offset="0.9494" style="stop-color:#FFB150"/>
		<stop  offset="1" style="stop-color:#FFAA50"/>
	</radialGradient>
	<path class="st27" d="M860.8,348.3c3.5-5.3,6.9-10.6,10.4-15.9c5-7.3,10-14.6,15.1-21.8c0.9-1.3,2.2-2.3,3.3-3.4
		c-0.1,1.5-0.1,3-0.2,4.4c-0.4,5-0.8,10-1.1,15.1c-6.1,5.2-12.1,10.5-18.3,15.6C867.2,344.6,863.9,346.3,860.8,348.3z"/>
	<path class="st28" d="M785.9,483.9c1.5,7.8,3.1,15.5,4.6,23.3c-2.9-4.5-6.6-8.8-8.2-13.7C781.5,490.9,784.6,487.1,785.9,483.9z"/>
	<path class="st28" d="M1079.7,366.1c3.5-1.5,3.6,1.4,4.5,3.3C1082.7,368.3,1081.2,367.2,1079.7,366.1z"/>
	<path class="st28" d="M1084.1,369.4c0.8,0.7,1.5,1.5,2.3,2.2C1085.7,370.9,1084.9,370.1,1084.1,369.4z"/>
	<path class="st28" d="M860.8,349.6c0-0.5,0-0.9,0.1-1.4C860.9,348.7,860.8,349.1,860.8,349.6z"/>
	<path class="st29" d="M1090.8,671.4c-0.4-0.1-0.8-0.1-1.2-0.2C1090,671.2,1090.4,671.3,1090.8,671.4z"/>
	<path class="st14" d="M896.9,321.9c0.2-0.1,0.3-0.3,0.5-0.4c-0.1,0.2-0.3,0.3-0.4,0.5C897,322,896.9,321.9,896.9,321.9z"/>
	<path class="st30" d="M799.5,669.3c-0.1-0.1-0.3-0.1-0.4-0.2c-0.1-0.1,0-0.2,0-0.3C799.3,669,799.4,669.1,799.5,669.3
		C799.6,669.3,799.5,669.3,799.5,669.3z"/>
	<path class="st14" d="M1028.9,720.9c0.1,0.2,0.3,0.4,0.4,0.6c-0.2-0.1-0.4-0.3-0.6-0.4C1028.7,721.1,1028.9,720.9,1028.9,720.9z"/>
	<path class="st14" d="M1027.4,548.6c0.3-0.2,0.5-0.5,0.8-0.7c0,0.5-0.1,0.9-0.1,1.4C1027.9,549,1027.7,548.8,1027.4,548.6z"/>
</g>
<path class="st31" d="M1170.6,475.6c-3-5.8-5.9-11.6-8.9-17.4c-1.1-1-2.3-1.8-3.2-2.9c-9.3-11.9-18.4-23.9-27.9-35.6
	c-2.9-3.5-3.7-5.7,0.7-8.1c3.2-1.7,2.5-3.2-0.1-5.2c-5.7-4.3-11.2-8.9-16.8-13.3c-9.3-7.2-18.6-14.4-28-21.6
	c-0.8-0.7-1.5-1.5-2.3-2.2l0.1,0.1c-1.5-1.1-3-2.2-4.5-3.3c-7.3-5.6-14.5-11.1-21.8-16.7c-4.2-3-8.5-6.1-12.7-9.1
	c-7.6-5.6-15.1-11.2-22.7-16.7c-1.1-0.8-2.5-1.3-3.8-1.9c0.2,1.4,0.2,2.9,0.7,4.1c9.8,21,19.8,41.9,29.6,62.9
	c7,15,13.9,30.1,20.8,45.1c2.6,5.2,5.3,10.3,7.7,15.5c1.4,3.1,2.7,3.6,5.3,1.3c1.9-1.7,4.2-3.1,6.3-4.7c2.4-2.1,4.6-4.5,7.2-6.2
	c1-0.6,3.7,0,4.5,0.9c11.3,14.8,22.5,29.6,33.4,44.7c1.1,1.6,1.4,5,0.5,6.7c-11.8,21.8-23.8,43.5-35.8,65.3
	c-3.8,9-8.2,17.9-11.2,27.2c-5,15.6-9.2,31.4-13.5,47.2c-0.9,3.2-1.3,4.6-4.9,2.6c-18.7-10.1-38.9-15.3-59.8-18.2
	c-4.3-0.6-4.8-1.8-3.4-5.6c6.7-18,13.1-36.2,19.6-54.3c0.8-2.3,1.4-4.7,2.1-7c-0.2-0.2-0.5-0.4-0.7-0.7
	c-13.5,10.9-26.9,21.9-40.4,32.8c-2.7,2.2-5.6,4.3-8.5,6.4c-0.3-3.5-0.8-6.9-0.9-10.4c-0.2-22.6-0.3-45.3-0.6-68
	c-0.1-4.1,0.5-6.1,5.4-6c9.9,0.1,10-0.2,8.2-9.9c-11.4-63.1-22.8-126.2-34.2-189.3c-0.3-1.4-0.9-2.8-1.4-4.2c-0.4,1.3-1,2.7-1.2,4
	c-3,17.8-6,35.7-9,53.6c-7.8,47.1-15.5,94.2-23.5,141.2c-0.8,4.9,0.6,5.3,4.7,5.2c10.7-0.3,10.7-0.2,10.8,10.6
	c0.2,23.4,0.3,46.8,0.4,70.2c0,1.5-0.3,2.9-0.4,4.4c-1.4-0.8-3-1.3-4.2-2.3c-14.6-11.7-29.1-23.4-43.7-35.1
	c-1.1-0.9-2.5-1.3-3.8-1.9c0.3,1.4,0.3,2.9,0.8,4.3c7.2,19.3,14.4,38.5,21.8,57.7c1.4,3.6,1.3,5.1-3.2,5.9
	c-19.1,3.3-37.5,8.7-54.5,18.1c-2.5,1.4-4.1,2.3-4.8-1.9c-5-30-17.5-57.2-31.4-83.9c-1.1-2.2-2-4.4-3-6.7
	c-5.2-8.9-10.5-17.8-15.6-26.7c-1.8-3.1-3.2-6.3-4.8-9.5c-2.8-4.5-6.6-8.8-8.2-13.7c-0.8-2.5,2.2-6.3,3.6-9.6
	c7.4-10.4,14.7-20.9,22.1-31.3c2.1-2.9,5-5.3,6.7-8.3c2.6-4.5,5.2-3.9,8.3-0.9c1.2,1.2,2.3,2.4,3.4,3.7c2.3,1.6,4.8,2.9,6.9,4.8
	c3,2.6,4.6,2.6,6.4-1.4c14.1-31.4,28.4-62.8,42.7-94.2c1.8-3.9,3.7-7.8,5.5-11.8c2.5-5.6,5.1-11.1,7.5-16.7c0.8-1.8,1-3.9,1.5-5.8
	l-0.1-0.1c-2.8,1.6-5.7,3.2-8.5,4.9c-6.1,5.2-12.1,10.5-18.3,15.6c-2.8,2.3-6.1,4-9.1,6c0,0.4,0,0.9-0.1,1.3
	c-16.1,12.5-32.2,25-48.4,37.6c-8.7,6.8-17.3,13.5-26,20.3c-4.2,3-3.5,5.7,0.7,7.9c2.7,1.4,2.3,2.4,0.6,4.6
	c-9.4,11.8-18.5,23.7-27.8,35.6c-4.2,7.3-8.4,14.6-12.5,22c-5.8,10.2-5.7,20.3,0.8,30.3c2,3.1,3.4,6.6,5.1,9.9
	c6.1,10.2,12.1,20.3,18.2,30.5c15.6,25.7,29.5,52.1,37,81.5c1.5,9.7,3.2,19.5,4.5,29.3c1.4,11,5.1,14.5,16.1,14.8
	c11.5-0.8,22.9-1.7,34.4-2.2c12.1-0.6,24.2-0.5,36.2-1.2c4.4-0.2,4.2,1.1,3,4.4c-5.3,14.3-10.4,28.7-15.6,43.1
	c-0.5,1.3-0.5,2.8-0.7,4.3c1.3-0.7,2.7-1.3,3.8-2.2c14.6-12,29.1-24,43.7-36c0.1-0.1,0.3-0.2,0.5-0.3v60.7
	c-9.9,12.5-9.6,30.3,0,42.8v122.1c-13.7-11-27.4-22-41.1-33c-1.3-1-2.8-1.8-4.2-2.7c0.3,1.8,0.5,3.6,1.1,5.3
	c9.5,25.4,19.2,50.8,28.5,76.3c1,2.9,1.1,6.7,0.1,9.6c-9,25.6-18.3,51.1-27.5,76.7c-0.7,1.9-0.6,4.1-0.9,6.2
	c14.6-12.2,29.2-24.4,43.9-36.6v68.6h10.8c0.9,0.4,2.2,0.5,3.9,0.4c3.6-0.2,7.1-0.3,10.7-0.4h9.8c2.2,0,4.4,0.1,6.6,0.2
	c1.2,0.1,2.3,0,3.1-0.2h3.5v-4.5c0.1-0.6,0.1-1.2,0.1-2c0-1.7,0-3.3-0.1-5v-60.5c0-0.2,0.1-0.4,0.1-0.6c1.2,0.6,2.6,1.1,3.7,1.9
	c14.4,11.6,28.8,23.2,43.3,34.7c1.1,0.9,2.4,1.4,3.7,2.1c-0.3-1.4-0.5-2.9-1-4.3c-9.7-25.9-19.6-51.8-29.2-77.9c-1-2.7-1-6.3,0-9
	c9.1-26,18.6-51.8,27.9-77.7c0.6-1.6,0.8-3.2,1.2-4.8c-1.4,0.9-2.8,1.6-4,2.6c-14.3,11.8-28.5,23.6-42.8,35.3
	c-0.8,0.7-1.8,1.1-2.8,1.6V789.3c12-13.3,12.1-34.2,0-47.3V685c12.8,10.4,25.5,20.9,38.2,31.4c2.5,1.5,5.1,3.1,7.6,4.6l0.2-0.2
	c-0.1-1.8-0.2-3.6-0.2-5.5c-2.6-6-5.3-12-7.7-18.1c-3-7.5-5.5-15.2-8.6-22.7c-1.8-4.2-1.1-5.6,3.7-5.5c24.5,0.8,49,1.3,73.4,2
	c0.4,0.1,0.8,0.1,1.2,0.2c2.7,0.2,5.4,0.3,8,0.5c2-2.3,4-4.6,6.1-6.9c1.2-8.5,2.4-17,3.7-25.5c3-20.9,10.8-40.1,19.9-58.9
	c0.2-0.5,0.8-0.8,1.2-1.2c4.9-9.9,9.5-20,14.8-29.7c8.5-15.7,17.2-31.3,26.1-46.7C1175.8,493.7,1175.3,484.7,1170.6,475.6z"/>
</svg>
